<svg xmlns="http://www.w3.org/2000/svg" width="375" viewBox="0 0 375 375" height="375" version="1.0"><defs><clipPath id="a"><path d="M 21 167 L 70 167 L 70 215.539062 L 21 215.539062 Z M 21 167"/></clipPath></defs><g clip-path="url(#a)"><path fill="#D9D9D9" d="M 43.171875 215.179688 C 33.027344 214.492188 24.117188 206.566406 21.601562 196.972656 C 19.28125 187.027344 23.890625 175.828125 32.878906 170.632812 C 38.660156 167.210938 45.917969 166.785156 52.316406 168.566406 C 60.222656 170.972656 66.238281 177.941406 68.351562 185.714844 C 70.25 192.875 68.878906 201.011719 63.835938 206.65625 C 59.269531 212.289062 51.96875 215.535156 44.664062 215.246094 C 44.167969 215.238281 43.671875 215.214844 43.171875 215.179688 Z M 49.21875 214.050781 C 51.042969 213.894531 50.722656 213.339844 49.066406 213.199219 C 46.105469 212.636719 42.910156 212.621094 40.054688 213.613281 C 42.570312 214.8125 45.910156 214.503906 48.722656 214.144531 Z M 40.257812 212.46875 C 41.554688 211.152344 40.199219 208.015625 39.0625 206.773438 C 36.527344 205.488281 34.558594 203.394531 32.238281 201.8125 C 30.488281 201.183594 28.785156 202.378906 27.09375 202.785156 C 27.085938 204.441406 26.976562 206.308594 28.445312 207.457031 C 30.867188 209.824219 33.785156 211.898438 37.082031 212.839844 C 38.140625 212.886719 39.253906 212.824219 40.257812 212.46875 Z M 54.167969 212.535156 C 58.378906 210.734375 62.332031 207.847656 64.707031 203.917969 C 65.558594 202.785156 66.1875 200.804688 63.953125 201.460938 C 61.148438 203.207031 58.617188 205.367188 55.742188 207.023438 C 54 208.386719 52.746094 210.265625 51.507812 212.0625 C 51.9375 213.054688 53.339844 212.820312 54.167969 212.535156 Z M 57.023438 205.3125 C 59.140625 203.59375 62.203125 202.484375 63.316406 199.875 C 63.816406 197.824219 63.855469 195.703125 64.066406 193.613281 C 61.957031 191.757812 59.367188 190.5 56.832031 189.3125 C 54.332031 189.511719 52.308594 191.710938 50.328125 193.136719 C 49.273438 193.714844 49.542969 195.011719 49.257812 196.003906 C 48.875 198.324219 48.429688 200.640625 48.175781 202.980469 C 50.144531 204.421875 52.34375 205.746094 54.738281 206.304688 C 55.601562 206.3125 56.320312 205.734375 57.023438 205.3125 Z M 41.925781 205.671875 C 43.84375 204.949219 46.378906 204.402344 47.28125 202.390625 C 47.945312 199.574219 48.316406 196.691406 48.671875 193.824219 C 46.765625 192.03125 44.734375 190.140625 42.234375 189.207031 C 40.082031 189.171875 38.253906 190.679688 36.339844 191.503906 C 33.757812 192.195312 32.863281 194.519531 32.75 196.914062 C 31.996094 199.289062 32.863281 201.722656 35.039062 203.03125 C 36.9375 204.417969 39.378906 206.625 41.925781 205.671875 Z M 25.882812 202.347656 C 24.324219 199.503906 23.253906 196.386719 22.824219 193.179688 C 21.289062 193.488281 22.683594 197.222656 23.109375 198.746094 C 23.835938 200.804688 24.945312 202.695312 26.09375 204.546875 C 26.304688 203.785156 26.429688 203.027344 25.882812 202.347656 Z M 25.210938 189.683594 C 25.890625 188.722656 26.972656 187.964844 27.378906 186.867188 C 28.097656 183.550781 29.269531 180.34375 30.949219 177.378906 C 30.878906 175.460938 28.714844 174.296875 27.636719 176.410156 C 24.566406 180.320312 22.15625 185.085938 22.050781 190.113281 C 21.648438 191.839844 23.164062 193.09375 24.039062 191.050781 C 24.429688 190.59375 24.820312 190.136719 25.210938 189.683594 Z M 64.75 192.058594 C 66.050781 190.371094 67.851562 188.363281 67.382812 186.078125 C 66.570312 181.738281 64.316406 177.617188 60.855469 174.789062 C 59.828125 174.359375 57.953125 172.773438 57.234375 174.273438 C 56.175781 176.285156 53.542969 178.1875 54.492188 180.691406 C 55.304688 183.164062 55.898438 185.75 57.082031 188.082031 C 59.265625 189.765625 61.792969 191.074219 64.335938 192.179688 Z M 35.71875 190.933594 C 37.734375 189.929688 39.691406 188.816406 41.65625 187.71875 C 42.320312 185.429688 43.152344 183.195312 43.925781 180.941406 C 44.035156 178.507812 41.839844 176.761719 40.371094 175.054688 C 38.925781 172.769531 36.488281 174.523438 34.707031 175.355469 C 30.789062 177.425781 29.886719 181.980469 28.558594 185.785156 C 28.742188 187.210938 30.058594 188.398438 31.023438 189.460938 C 32.351562 190.78125 33.847656 192.546875 35.71875 190.933594 Z M 50.171875 178.632812 C 51.214844 178.492188 52.378906 178.59375 53.34375 178.304688 C 54.792969 176.761719 56.066406 174.957031 56.667969 172.929688 C 55.941406 170.890625 53.53125 169.960938 51.59375 169.265625 C 49.128906 168.539062 46.488281 168.183594 43.929688 168.46875 C 42.082031 169.402344 38.765625 172.109375 40.636719 174.210938 C 42.007812 175.824219 43.46875 177.359375 44.953125 178.871094 C 46.695312 178.886719 48.433594 178.753906 50.171875 178.632812 Z M 50.171875 178.632812"/></g><g fill="#FFF"><g><g><path d="M 30.765625 0 L 27.546875 0 L 27.546875 -13.71875 L 17.625 0 L 15.96875 0 L 6.0625 -13.71875 L 6.0625 0 L 2.828125 0 L 2.828125 -20.3125 L 5.265625 -20.3125 L 16.8125 -4.359375 L 28.328125 -20.3125 L 30.765625 -20.3125 Z M 30.765625 0" transform="translate(74.687 193.138)"/></g></g></g><g fill="#FFF"><g><g><path d="M 29.609375 0 L 25.703125 0 L 22.734375 -4.40625 L 7.3125 -4.40625 L 4.3125 0 L 0.421875 0 L 14.15625 -20.3125 L 15.875 -20.3125 Z M 20.546875 -7.625 L 15.015625 -15.8125 L 9.46875 -7.625 Z M 20.546875 -7.625" transform="translate(108.28 193.138)"/></g></g></g><g fill="#FFF"><g><g><path d="M 27.03125 0 L 24.84375 0 L 6.0625 -15.3125 L 6.0625 0 L 2.828125 0 L 2.828125 -20.3125 L 5.015625 -20.3125 L 23.796875 -5.015625 L 23.796875 -20.3125 L 27.03125 -20.3125 Z M 27.03125 0" transform="translate(138.305 193.138)"/></g></g></g><g fill="#FFF"><g><g><path d="M 19.859375 0 C 21.648438 0 23.175781 -0.628906 24.4375 -1.890625 C 25.695312 -3.148438 26.328125 -4.671875 26.328125 -6.453125 L 26.328125 -20.3125 L 23.09375 -20.3125 L 23.09375 -6.453125 C 23.09375 -5.554688 22.773438 -4.796875 22.140625 -4.171875 C 21.515625 -3.546875 20.753906 -3.234375 19.859375 -3.234375 L 8.578125 -3.234375 C 7.679688 -3.234375 6.921875 -3.546875 6.296875 -4.171875 C 5.671875 -4.796875 5.359375 -5.554688 5.359375 -6.453125 L 5.359375 -20.3125 L 2.125 -20.3125 L 2.125 -6.453125 C 2.125 -4.671875 2.753906 -3.148438 4.015625 -1.890625 C 5.273438 -0.628906 6.796875 0 8.578125 0 Z M 19.859375 0" transform="translate(168.161 193.138)"/></g></g></g><g fill="#FFF"><g><g><path d="M 29.609375 0 L 25.703125 0 L 22.734375 -4.40625 L 7.3125 -4.40625 L 4.3125 0 L 0.421875 0 L 14.15625 -20.3125 L 15.875 -20.3125 Z M 20.546875 -7.625 L 15.015625 -15.8125 L 9.46875 -7.625 Z M 20.546875 -7.625" transform="translate(196.601 193.138)"/></g></g></g><g fill="#FFF"><g><g><path d="M 21.421875 0 L 21.421875 -3.234375 L 6.0625 -3.234375 L 6.0625 -20.3125 L 2.828125 -20.3125 L 2.828125 0 Z M 21.421875 0" transform="translate(226.627 193.138)"/></g></g></g><g fill="#FFF"><g><g><path d="M 1.292969 0 L 3.351562 0 C 6.472656 0 9.53125 -2.234375 9.53125 -5.039062 C 9.53125 -7.578125 7.042969 -10.078125 3.921875 -10.078125 L 1.292969 -10.078125 Z M 3.261719 -0.0507812 C 2.449219 -0.0507812 2.195312 -0.242188 2.195312 -0.429688 L 2.195312 -10.027344 L 3.707031 -10.027344 C 6.398438 -10.027344 8.542969 -7.550781 8.542969 -5.039062 C 8.542969 -2.273438 5.925781 -0.0507812 3.261719 -0.0507812 Z M 3.261719 -0.0507812" transform="translate(75.33 205.988)"/></g></g></g><g fill="#FFF"><g><g><path d="M -0.367188 0 L 1.851562 0 L 1.851562 -0.0390625 L 1.6875 -0.0390625 C 1.230469 -0.0390625 0.976562 -0.671875 1.179688 -1.308594 L 1.992188 -3.949219 L 5.457031 -3.949219 L 6.296875 -1.191406 C 6.421875 -0.597656 6.167969 -0.0507812 5.738281 -0.0507812 L 5.570312 -0.0507812 L 5.585938 0 L 8.175781 0 L 8.175781 -0.0390625 L 8.085938 -0.0390625 C 7.84375 -0.0390625 7.414062 -0.671875 7.210938 -1.308594 C 6.269531 -4.316406 5.332031 -7.324219 4.40625 -10.332031 L 4.316406 -10.332031 C 4.355469 -10.117188 4.035156 -9.851562 3.667969 -9.800781 L 3.707031 -9.671875 L 1.105469 -1.308594 C 0.902344 -0.660156 0.253906 -0.0390625 -0.203125 -0.0390625 L -0.367188 -0.0390625 Z M 2.003906 -4.035156 L 3.71875 -9.609375 L 5.417969 -4.035156 Z M 2.003906 -4.035156" transform="translate(85.56 205.988)"/></g></g></g><g fill="#FFF"><g><g><path d="M 1.320312 0 L 2.222656 0 L 2.222656 -10.078125 L 1.320312 -10.078125 Z M 1.320312 0" transform="translate(97.325 205.988)"/></g></g></g><g fill="#FFF"><g><g><path d="M 0.621094 0.0117188 L 1.828125 0.0117188 L 1.828125 -0.0234375 L 1.75 -0.0234375 C 1.5625 -0.0234375 1.394531 -0.34375 1.394531 -0.660156 L 1.546875 -8.847656 C 2.730469 -5.890625 3.898438 -2.933594 5.078125 0.0117188 L 5.304688 0.0117188 L 5.316406 -0.0507812 L 8.53125 -9.226562 L 8.746094 -0.570312 C 8.71875 -0.226562 8.566406 -0.0234375 8.328125 -0.0234375 L 8.328125 0.0117188 L 10.105469 0.0117188 L 10.105469 -0.0234375 L 10.027344 -0.0234375 C 9.851562 -0.0234375 9.660156 -0.34375 9.648438 -0.660156 L 9.40625 -9.507812 C 9.429688 -9.835938 9.582031 -10.027344 9.824219 -10.027344 L 9.800781 -10.078125 L 8.492188 -10.078125 L 5.457031 -1.15625 L 2.132812 -10.078125 L 0.632812 -10.078125 L 0.632812 -10.039062 C 0.886719 -10.039062 1.167969 -9.773438 1.320312 -9.417969 C 1.230469 -6.5 1.167969 -3.566406 1.078125 -0.660156 C 1.066406 -0.34375 0.875 -0.0234375 0.699219 -0.0234375 L 0.621094 -0.0234375 Z M 0.621094 0.0117188" transform="translate(100.739 205.988)"/></g></g></g><g fill="#FFF"><g><g><path d="M 1.523438 0 L 2.410156 0 L 2.410156 -4.710938 L 3.136719 -4.710938 C 5.164062 -4.710938 7.144531 -5.773438 7.144531 -7.261719 C 7.144531 -8.683594 5.507812 -10.078125 3.847656 -10.078125 L 1.523438 -10.078125 Z M 2.410156 -4.898438 L 2.410156 -9.925781 L 3.617188 -9.925781 C 4.976562 -9.925781 6.308594 -8.683594 6.308594 -7.414062 C 6.308594 -5.953125 4.734375 -4.898438 3.136719 -4.898438 Z M 2.410156 -4.898438" transform="translate(110.968 205.988)"/></g></g></g><g fill="#FFF"><g><g><path d="M 5.242188 0.125 C 7.703125 0.125 10.117188 -2.425781 10.117188 -5.039062 C 10.117188 -7.652344 7.769531 -10.203125 5.367188 -10.203125 C 3.035156 -10.203125 0.734375 -7.652344 0.734375 -5.039062 C 0.734375 -2.425781 2.96875 0.125 5.242188 0.125 Z M 5.253906 0.0625 C 3.464844 0.0625 1.714844 -2.460938 1.714844 -5.039062 C 1.714844 -7.617188 3.515625 -10.140625 5.355469 -10.140625 C 7.261719 -10.140625 9.140625 -7.617188 9.140625 -5.039062 C 9.140625 -2.460938 7.222656 0.0625 5.253906 0.0625 Z M 5.253906 0.0625" transform="translate(118.367 205.988)"/></g></g></g><g fill="#FFF"><g><g><path d="M 1.308594 0 L 2.207031 0 L 2.207031 -4.886719 L 4.125 -4.886719 C 4.316406 -4.378906 5.164062 -2.527344 5.992188 -0.824219 C 6.28125 -0.214844 6.703125 -0.0390625 8.035156 -0.0117188 C 7.515625 -0.0625 7.296875 -0.265625 7.03125 -0.8125 L 5 -4.988281 C 6.179688 -5.265625 7.160156 -6.128906 7.160156 -7.246094 C 7.160156 -8.683594 5.6875 -10.078125 4.175781 -10.078125 L 1.308594 -10.078125 Z M 2.207031 -5.113281 L 2.207031 -9.914062 L 3.910156 -9.914062 C 5.050781 -9.914062 6.167969 -8.683594 6.167969 -7.4375 C 6.167969 -6.09375 5.179688 -5.113281 4.175781 -5.113281 Z M 2.207031 -5.113281" transform="translate(129.18 205.988)"/></g></g></g><g fill="#FFF"><g><g><path d="M 4.644531 0.0117188 L 5.546875 0.0117188 L 5.546875 -9.835938 L 8.125 -9.835938 C 8.667969 -9.835938 9.445312 -9.445312 9.699219 -9.039062 L 9.800781 -8.886719 L 9.902344 -8.898438 L 9.480469 -9.964844 L 9.480469 -10.078125 L 0.699219 -10.078125 L 0.699219 -9.902344 C 0.582031 -9.621094 0.394531 -9.140625 0.304688 -8.886719 L 0.417969 -8.886719 L 0.519531 -9.039062 C 0.773438 -9.445312 1.546875 -9.835938 2.09375 -9.835938 L 4.644531 -9.835938 Z M 0.683594 -10.054688 C 0.699219 -10.066406 0.699219 -10.078125 0.699219 -10.078125 Z M 9.546875 -9.953125 C 9.546875 -9.976562 9.507812 -10.066406 9.507812 -10.066406 L 9.496094 -10.066406 Z M 0.648438 -9.964844 C 0.660156 -9.976562 0.671875 -10.003906 0.671875 -10.015625 Z M 0.648438 -9.964844" transform="translate(137.722 205.988)"/></g></g></g><g fill="#FFF"><g><g><path d="M -0.367188 0 L 1.851562 0 L 1.851562 -0.0390625 L 1.6875 -0.0390625 C 1.230469 -0.0390625 0.976562 -0.671875 1.179688 -1.308594 L 1.992188 -3.949219 L 5.457031 -3.949219 L 6.296875 -1.191406 C 6.421875 -0.597656 6.167969 -0.0507812 5.738281 -0.0507812 L 5.570312 -0.0507812 L 5.585938 0 L 8.175781 0 L 8.175781 -0.0390625 L 8.085938 -0.0390625 C 7.84375 -0.0390625 7.414062 -0.671875 7.210938 -1.308594 C 6.269531 -4.316406 5.332031 -7.324219 4.40625 -10.332031 L 4.316406 -10.332031 C 4.355469 -10.117188 4.035156 -9.851562 3.667969 -9.800781 L 3.707031 -9.671875 L 1.105469 -1.308594 C 0.902344 -0.660156 0.253906 -0.0390625 -0.203125 -0.0390625 L -0.367188 -0.0390625 Z M 2.003906 -4.035156 L 3.71875 -9.609375 L 5.417969 -4.035156 Z M 2.003906 -4.035156" transform="translate(147.888 205.988)"/></g></g></g><g fill="#FFF"><g><g><path d="M 4.695312 2.730469 C 4.886719 2.730469 5.050781 2.703125 5.203125 2.640625 C 5.355469 2.578125 5.484375 2.5 5.597656 2.398438 C 5.710938 2.296875 5.789062 2.183594 5.851562 2.042969 C 5.914062 1.902344 5.941406 1.765625 5.941406 1.613281 C 5.941406 1.394531 5.875 1.242188 5.738281 1.15625 C 5.597656 1.066406 5.445312 1.003906 5.28125 0.964844 C 5.113281 0.925781 4.964844 0.902344 4.824219 0.863281 C 4.683594 0.824219 4.570312 0.785156 4.46875 0.734375 L 4.847656 0.0625 L 4.519531 0.0625 C 4.457031 0.226562 4.390625 0.394531 4.304688 0.558594 C 4.214844 0.722656 4.101562 0.902344 3.960938 1.117188 C 4 1.15625 4.050781 1.179688 4.136719 1.21875 C 4.226562 1.257812 4.316406 1.28125 4.429688 1.320312 C 4.542969 1.359375 4.660156 1.382812 4.773438 1.410156 C 4.886719 1.433594 5 1.460938 5.113281 1.472656 C 5.332031 1.511719 5.496094 1.5625 5.585938 1.625 C 5.671875 1.6875 5.722656 1.777344 5.722656 1.890625 C 5.722656 2.019531 5.660156 2.121094 5.519531 2.195312 C 5.382812 2.273438 5.179688 2.308594 4.9375 2.308594 C 4.671875 2.308594 4.429688 2.246094 4.214844 2.121094 C 4 1.992188 3.859375 1.816406 3.808594 1.597656 L 3.59375 1.597656 C 3.605469 1.664062 3.617188 1.738281 3.628906 1.828125 C 3.644531 1.917969 3.644531 1.992188 3.644531 2.070312 L 3.644531 2.347656 C 3.71875 2.4375 3.847656 2.539062 4.011719 2.628906 C 4.1875 2.714844 4.429688 2.765625 4.746094 2.765625 Z M 5.128906 0.164062 C 6.308594 0.164062 7.414062 -0.253906 8.1875 -0.8125 C 8.53125 -1.066406 8.898438 -1.105469 8.910156 -0.902344 L 8.921875 -0.722656 L 8.972656 -0.722656 L 8.972656 -2.15625 L 8.808594 -2.15625 C 8.644531 -1.648438 7.972656 -0.925781 7.425781 -0.597656 C 6.753906 -0.175781 5.953125 0.101562 5.140625 0.101562 C 3.441406 0.101562 1.765625 -2.425781 1.765625 -5 C 1.765625 -7.578125 3.503906 -10.105469 5.28125 -10.105469 C 6.027344 -10.105469 6.753906 -9.824219 7.386719 -9.417969 C 7.386719 -9.417969 8.441406 -8.65625 8.746094 -7.996094 C 8.757812 -7.957031 8.808594 -7.871094 8.820312 -7.832031 L 8.988281 -7.832031 L 8.988281 -9.242188 L 8.921875 -9.242188 L 8.910156 -9.0625 C 8.886719 -8.859375 8.515625 -8.921875 8.148438 -9.191406 C 7.398438 -9.75 6.410156 -10.167969 5.265625 -10.167969 C 3.007812 -10.167969 0.800781 -7.617188 0.800781 -5 C 0.800781 -2.386719 2.945312 0.164062 5.128906 0.164062 Z M 5.128906 0.164062" transform="translate(156.061 205.988)"/></g></g></g><g fill="#FFF"><g><g><path d="M 5.292969 -11.589844 C 5.761719 -11.589844 6.21875 -12.234375 6.21875 -12.894531 L 6.167969 -12.894531 C 6.167969 -12.515625 5.8125 -12.132812 5.457031 -12.132812 C 4.8125 -12.132812 3.554688 -12.960938 2.90625 -12.960938 C 2.460938 -12.960938 2.019531 -12.285156 2.019531 -11.601562 L 2.070312 -11.601562 C 2.070312 -12.007812 2.398438 -12.414062 2.730469 -12.414062 C 3.375 -12.414062 4.644531 -11.589844 5.292969 -11.589844 Z M -0.367188 0 L 1.851562 0 L 1.851562 -0.0390625 L 1.6875 -0.0390625 C 1.230469 -0.0390625 0.976562 -0.671875 1.179688 -1.308594 L 1.992188 -3.949219 L 5.457031 -3.949219 L 6.296875 -1.191406 C 6.421875 -0.597656 6.167969 -0.0507812 5.738281 -0.0507812 L 5.570312 -0.0507812 L 5.585938 0 L 8.175781 0 L 8.175781 -0.0390625 L 8.085938 -0.0390625 C 7.84375 -0.0390625 7.414062 -0.671875 7.210938 -1.308594 C 6.269531 -4.316406 5.332031 -7.324219 4.40625 -10.332031 L 4.316406 -10.332031 C 4.355469 -10.117188 4.035156 -9.851562 3.667969 -9.800781 L 3.707031 -9.671875 L 1.105469 -1.308594 C 0.902344 -0.660156 0.253906 -0.0390625 -0.203125 -0.0390625 L -0.367188 -0.0390625 Z M 2.003906 -4.035156 L 3.71875 -9.609375 L 5.417969 -4.035156 Z M 2.003906 -4.035156" transform="translate(165.554 205.988)"/></g></g></g><g fill="#FFF"><g><g><path d="M 5.242188 0.125 C 7.703125 0.125 10.117188 -2.425781 10.117188 -5.039062 C 10.117188 -7.652344 7.769531 -10.203125 5.367188 -10.203125 C 3.035156 -10.203125 0.734375 -7.652344 0.734375 -5.039062 C 0.734375 -2.425781 2.96875 0.125 5.242188 0.125 Z M 5.253906 0.0625 C 3.464844 0.0625 1.714844 -2.460938 1.714844 -5.039062 C 1.714844 -7.617188 3.515625 -10.140625 5.355469 -10.140625 C 7.261719 -10.140625 9.140625 -7.617188 9.140625 -5.039062 C 9.140625 -2.460938 7.222656 0.0625 5.253906 0.0625 Z M 5.253906 0.0625" transform="translate(173.728 205.988)"/></g></g></g><g fill="#FFF"><g><g><path d="M 1.292969 0.0117188 L 6.789062 0 C 6.789062 -0.0507812 6.941406 -0.902344 6.96875 -1.003906 L 6.855469 -1.003906 L 6.789062 -0.851562 C 6.625 -0.445312 5.824219 -0.0507812 5.152344 -0.0507812 L 2.628906 -0.0507812 C 2.296875 -0.0507812 2.195312 -0.226562 2.195312 -0.417969 L 2.195312 -5.164062 L 4.367188 -5.164062 C 4.875 -5.164062 5.457031 -4.710938 5.546875 -4.253906 L 5.585938 -4.085938 L 5.699219 -4.085938 L 5.699219 -5.164062 L 5.710938 -5.164062 L 5.710938 -5.230469 L 5.699219 -5.230469 L 5.699219 -6.308594 L 5.585938 -6.308594 L 5.546875 -6.144531 C 5.457031 -5.6875 4.875 -5.230469 4.367188 -5.230469 L 2.195312 -5.230469 L 2.195312 -10.003906 L 5.140625 -10.003906 C 5.660156 -10.003906 6.296875 -9.546875 6.433594 -9.089844 L 6.5 -8.921875 L 6.613281 -8.921875 L 6.472656 -10.039062 L 6.472656 -10.066406 L 1.292969 -10.066406 Z M 1.292969 0.0117188" transform="translate(188.132 205.988)"/></g></g></g><g fill="#FFF"><g><g><path d="M 3.984375 0.125 C 5.394531 0.125 6.777344 -1.167969 6.777344 -2.5 C 6.777344 -3.425781 5.660156 -4.863281 4.253906 -5.507812 C 2.78125 -6.195312 1.597656 -7.386719 1.597656 -8.035156 C 1.597656 -9.101562 2.4375 -10.140625 3.300781 -10.140625 C 3.707031 -10.140625 4.175781 -10.003906 4.609375 -9.773438 C 5.113281 -9.507812 5.8125 -8.785156 6.003906 -8.300781 C 6.015625 -8.25 6.066406 -8.175781 6.078125 -8.125 L 6.246094 -8.125 L 6.246094 -9.40625 L 6.179688 -9.40625 L 6.167969 -9.265625 C 6.15625 -9.113281 5.863281 -9.175781 5.597656 -9.378906 C 5.066406 -9.785156 4.152344 -10.21875 3.300781 -10.21875 C 2.082031 -10.21875 0.886719 -8.960938 0.886719 -7.691406 C 0.886719 -6.777344 2.144531 -5.304688 3.71875 -4.570312 C 5.015625 -3.960938 6.054688 -2.867188 6.054688 -2.234375 C 6.054688 -1.089844 5.027344 0.0390625 3.984375 0.0390625 C 3.425781 0.0390625 2.730469 -0.265625 2.121094 -0.722656 C 1.664062 -1.089844 1.089844 -1.839844 0.902344 -2.308594 C 0.886719 -2.359375 0.835938 -2.4375 0.824219 -2.488281 L 0.660156 -2.488281 L 0.660156 -0.75 L 0.722656 -0.75 L 0.734375 -1.003906 C 0.75 -1.28125 1.128906 -1.257812 1.484375 -0.953125 C 2.207031 -0.328125 3.199219 0.125 3.984375 0.125 Z M 3.984375 0.125" transform="translate(195.519 205.988)"/></g></g></g><g fill="#FFF"><g><g><path d="M 1.523438 0 L 2.410156 0 L 2.410156 -4.710938 L 3.136719 -4.710938 C 5.164062 -4.710938 7.144531 -5.773438 7.144531 -7.261719 C 7.144531 -8.683594 5.507812 -10.078125 3.847656 -10.078125 L 1.523438 -10.078125 Z M 2.410156 -4.898438 L 2.410156 -9.925781 L 3.617188 -9.925781 C 4.976562 -9.925781 6.308594 -8.683594 6.308594 -7.414062 C 6.308594 -5.953125 4.734375 -4.898438 3.136719 -4.898438 Z M 2.410156 -4.898438" transform="translate(202.804 205.988)"/></g></g></g><g fill="#FFF"><g><g><path d="M 5.242188 0.125 C 7.703125 0.125 10.117188 -2.425781 10.117188 -5.039062 C 10.117188 -7.652344 7.769531 -10.203125 5.367188 -10.203125 C 3.035156 -10.203125 0.734375 -7.652344 0.734375 -5.039062 C 0.734375 -2.425781 2.96875 0.125 5.242188 0.125 Z M 5.253906 0.0625 C 3.464844 0.0625 1.714844 -2.460938 1.714844 -5.039062 C 1.714844 -7.617188 3.515625 -10.140625 5.355469 -10.140625 C 7.261719 -10.140625 9.140625 -7.617188 9.140625 -5.039062 C 9.140625 -2.460938 7.222656 0.0625 5.253906 0.0625 Z M 5.253906 0.0625" transform="translate(210.203 205.988)"/></g></g></g><g fill="#FFF"><g><g><path d="M 1.308594 0 L 2.207031 0 L 2.207031 -4.886719 L 4.125 -4.886719 C 4.316406 -4.378906 5.164062 -2.527344 5.992188 -0.824219 C 6.28125 -0.214844 6.703125 -0.0390625 8.035156 -0.0117188 C 7.515625 -0.0625 7.296875 -0.265625 7.03125 -0.8125 L 5 -4.988281 C 6.179688 -5.265625 7.160156 -6.128906 7.160156 -7.246094 C 7.160156 -8.683594 5.6875 -10.078125 4.175781 -10.078125 L 1.308594 -10.078125 Z M 2.207031 -5.113281 L 2.207031 -9.914062 L 3.910156 -9.914062 C 5.050781 -9.914062 6.167969 -8.683594 6.167969 -7.4375 C 6.167969 -6.09375 5.179688 -5.113281 4.175781 -5.113281 Z M 2.207031 -5.113281" transform="translate(221.016 205.988)"/></g></g></g><g fill="#FFF"><g><g><path d="M 4.644531 0.0117188 L 5.546875 0.0117188 L 5.546875 -9.835938 L 8.125 -9.835938 C 8.667969 -9.835938 9.445312 -9.445312 9.699219 -9.039062 L 9.800781 -8.886719 L 9.902344 -8.898438 L 9.480469 -9.964844 L 9.480469 -10.078125 L 0.699219 -10.078125 L 0.699219 -9.902344 C 0.582031 -9.621094 0.394531 -9.140625 0.304688 -8.886719 L 0.417969 -8.886719 L 0.519531 -9.039062 C 0.773438 -9.445312 1.546875 -9.835938 2.09375 -9.835938 L 4.644531 -9.835938 Z M 0.683594 -10.054688 C 0.699219 -10.066406 0.699219 -10.078125 0.699219 -10.078125 Z M 9.546875 -9.953125 C 9.546875 -9.976562 9.507812 -10.066406 9.507812 -10.066406 L 9.496094 -10.066406 Z M 0.648438 -9.964844 C 0.660156 -9.976562 0.671875 -10.003906 0.671875 -10.015625 Z M 0.648438 -9.964844" transform="translate(229.558 205.988)"/></g></g></g><g fill="#FFF"><g><g><path d="M 1.320312 0 L 2.222656 0 L 2.222656 -10.078125 L 1.320312 -10.078125 Z M 1.320312 0" transform="translate(239.723 205.988)"/></g></g></g><g fill="#FFF"><g><g><path d="M 4.164062 0.152344 L 4.339844 0.152344 L 7.832031 -8.921875 C 8.085938 -9.496094 8.492188 -10.015625 8.683594 -10.015625 L 8.746094 -10.015625 L 8.734375 -10.078125 L 6.625 -10.078125 L 6.625 -10.039062 L 6.816406 -10.039062 C 7.347656 -10.039062 7.652344 -9.40625 7.414062 -8.769531 L 4.621094 -1.140625 L 1.867188 -8.785156 C 1.648438 -9.40625 1.867188 -10.027344 2.324219 -10.027344 L 2.488281 -10.027344 L 2.488281 -10.066406 L 0.0625 -10.066406 L 0.0625 -10.027344 L 0.113281 -10.027344 C 0.253906 -10.027344 0.609375 -9.394531 0.851562 -8.757812 Z M 4.164062 0.152344" transform="translate(243.137 205.988)"/></g></g></g><g fill="#FFF"><g><g><path d="M -0.367188 0 L 1.851562 0 L 1.851562 -0.0390625 L 1.6875 -0.0390625 C 1.230469 -0.0390625 0.976562 -0.671875 1.179688 -1.308594 L 1.992188 -3.949219 L 5.457031 -3.949219 L 6.296875 -1.191406 C 6.421875 -0.597656 6.167969 -0.0507812 5.738281 -0.0507812 L 5.570312 -0.0507812 L 5.585938 0 L 8.175781 0 L 8.175781 -0.0390625 L 8.085938 -0.0390625 C 7.84375 -0.0390625 7.414062 -0.671875 7.210938 -1.308594 C 6.269531 -4.316406 5.332031 -7.324219 4.40625 -10.332031 L 4.316406 -10.332031 C 4.355469 -10.117188 4.035156 -9.851562 3.667969 -9.800781 L 3.707031 -9.671875 L 1.105469 -1.308594 C 0.902344 -0.660156 0.253906 -0.0390625 -0.203125 -0.0390625 L -0.367188 -0.0390625 Z M 2.003906 -4.035156 L 3.71875 -9.609375 L 5.417969 -4.035156 Z M 2.003906 -4.035156" transform="translate(252.072 205.988)"/></g></g></g></svg>